<svg width="135" height="48" viewBox="0 0 135 48" fill="none" xmlns="http://www.w3.org/2000/svg">
<path d="M5.27723 42H1.86814V30.3636H5.48178C6.59162 30.3636 7.54049 30.5947 8.32837 31.0568C9.12003 31.5189 9.72609 32.1818 10.1465 33.0455C10.567 33.9091 10.7772 34.9451 10.7772 36.1534C10.7772 37.3731 10.5613 38.4205 10.1295 39.2955C9.70147 40.1667 9.07647 40.8352 8.2545 41.3011C7.43632 41.767 6.4439 42 5.27723 42ZM2.93064 41.0455H5.21473C6.21473 41.0455 7.05185 40.8485 7.72609 40.4545C8.40034 40.0606 8.90602 39.4981 9.24314 38.767C9.58026 38.036 9.74882 37.1648 9.74882 36.1534C9.74503 35.1496 9.57837 34.286 9.24882 33.5625C8.92306 32.839 8.43822 32.2841 7.79428 31.8977C7.15412 31.5114 6.36246 31.3182 5.41928 31.3182H2.93064V41.0455ZM13.0463 42V33.2727H14.0292V34.6136H14.1031C14.2773 34.1742 14.5804 33.8201 15.0122 33.5511C15.4478 33.2784 15.9402 33.142 16.4895 33.142C16.5728 33.142 16.6656 33.1439 16.7679 33.1477C16.8702 33.1515 16.9554 33.1553 17.0236 33.1591V34.1875C16.9781 34.1799 16.8986 34.1686 16.7849 34.1534C16.6713 34.1383 16.5482 34.1307 16.4156 34.1307C15.9611 34.1307 15.5558 34.2273 15.1997 34.4205C14.8474 34.6098 14.569 34.8731 14.3645 35.2102C14.1599 35.5473 14.0577 35.9318 14.0577 36.3636V42H13.0463ZM21.7798 42.1818C21.026 42.1818 20.3594 41.9905 19.7798 41.608C19.2041 41.2254 18.7533 40.697 18.4276 40.0227C18.1018 39.3447 17.9389 38.5625 17.9389 37.6761C17.9389 36.7822 18.1018 35.9962 18.4276 35.3182C18.7533 34.6364 19.2041 34.1061 19.7798 33.7273C20.3594 33.3447 21.026 33.1534 21.7798 33.1534C22.5336 33.1534 23.1984 33.3447 23.7742 33.7273C24.3499 34.1098 24.8007 34.6402 25.1264 35.3182C25.456 35.9962 25.6207 36.7822 25.6207 37.6761C25.6207 38.5625 25.4579 39.3447 25.1321 40.0227C24.8063 40.697 24.3537 41.2254 23.7742 41.608C23.1984 41.9905 22.5336 42.1818 21.7798 42.1818ZM21.7798 41.2557C22.3859 41.2557 22.8992 41.0928 23.3196 40.767C23.7401 40.4413 24.0582 40.0076 24.2742 39.4659C24.4938 38.9242 24.6037 38.3277 24.6037 37.6761C24.6037 37.0246 24.4938 36.4261 24.2742 35.8807C24.0582 35.3352 23.7401 34.8977 23.3196 34.5682C22.8992 34.2386 22.3859 34.0739 21.7798 34.0739C21.1776 34.0739 20.6643 34.2386 20.2401 34.5682C19.8196 34.8977 19.4995 35.3352 19.2798 35.8807C19.0639 36.4261 18.956 37.0246 18.956 37.6761C18.956 38.3277 19.0639 38.9242 19.2798 39.4659C19.4995 40.0076 19.8196 40.4413 20.2401 40.767C20.6605 41.0928 21.1738 41.2557 21.7798 41.2557ZM27.7449 45.2727V33.2727H28.7279V34.9375H28.8472C28.9684 34.6761 29.1351 34.4091 29.3472 34.1364C29.5593 33.8598 29.8396 33.6269 30.1881 33.4375C30.5404 33.2481 30.9835 33.1534 31.5176 33.1534C32.2373 33.1534 32.8661 33.3428 33.404 33.7216C33.9457 34.0966 34.3661 34.6231 34.6654 35.3011C34.9684 35.9754 35.1199 36.7614 35.1199 37.6591C35.1199 38.5606 34.9684 39.3504 34.6654 40.0284C34.3661 40.7064 33.9457 41.2348 33.404 41.6136C32.8661 41.9924 32.2411 42.1818 31.529 42.1818C31.0025 42.1818 30.5612 42.0871 30.2051 41.8977C29.8529 41.7083 29.5669 41.4754 29.3472 41.1989C29.1313 40.9186 28.9646 40.6458 28.8472 40.3807H28.7563V45.2727H27.7449ZM28.7449 37.642C28.7449 38.3466 28.8491 38.9716 29.0574 39.517C29.2695 40.0587 29.5726 40.4848 29.9665 40.7955C30.3642 41.1023 30.8453 41.2557 31.4097 41.2557C31.9892 41.2557 32.4779 41.0966 32.8756 40.7784C33.2771 40.4564 33.582 40.0227 33.7904 39.4773C34.0025 38.9318 34.1085 38.3201 34.1085 37.642C34.1085 36.9716 34.0044 36.3674 33.796 35.8295C33.5915 35.2917 33.2885 34.8655 32.887 34.5511C32.4854 34.233 31.993 34.0739 31.4097 34.0739C30.8415 34.0739 30.3585 34.2273 29.9608 34.5341C29.5631 34.8371 29.2601 35.2576 29.0517 35.7955C28.8472 36.3295 28.7449 36.9451 28.7449 37.642ZM45.0558 42.1818C44.2755 42.1818 43.5955 41.9867 43.016 41.5966C42.4402 41.2064 41.9933 40.6723 41.6751 39.9943C41.3569 39.3163 41.1978 38.5436 41.1978 37.6761C41.1978 36.8011 41.3588 36.0227 41.6808 35.3409C42.0065 34.6591 42.4573 34.125 43.033 33.7386C43.6088 33.3485 44.2773 33.1534 45.0387 33.1534C45.622 33.1534 46.1505 33.267 46.6239 33.4943C47.0974 33.7178 47.4876 34.0341 47.7944 34.4432C48.105 34.8485 48.3001 35.322 48.3796 35.8636H47.3569C47.2508 35.3712 46.9951 34.9508 46.5898 34.6023C46.1883 34.25 45.677 34.0739 45.0558 34.0739C44.4989 34.0739 44.0065 34.2254 43.5785 34.5284C43.1505 34.8277 42.8152 35.2462 42.5728 35.7841C42.3342 36.3182 42.2148 36.9375 42.2148 37.642C42.2148 38.3504 42.3323 38.9773 42.5671 39.5227C42.802 40.0644 43.1315 40.4886 43.5558 40.7955C43.9838 41.1023 44.4838 41.2557 45.0558 41.2557C45.4421 41.2557 45.7944 41.1837 46.1126 41.0398C46.4345 40.892 46.7035 40.6837 46.9194 40.4148C47.1391 40.1458 47.2868 39.8258 47.3626 39.4545H48.3853C48.3095 39.9811 48.122 40.4508 47.8228 40.8636C47.5273 41.2727 47.1429 41.5947 46.6694 41.8295C46.1997 42.0644 45.6618 42.1818 45.0558 42.1818ZM53.849 42.1818C53.0952 42.1818 52.4285 41.9905 51.849 41.608C51.2732 41.2254 50.8224 40.697 50.4967 40.0227C50.1709 39.3447 50.008 38.5625 50.008 37.6761C50.008 36.7822 50.1709 35.9962 50.4967 35.3182C50.8224 34.6364 51.2732 34.1061 51.849 33.7273C52.4285 33.3447 53.0952 33.1534 53.849 33.1534C54.6027 33.1534 55.2675 33.3447 55.8433 33.7273C56.419 34.1098 56.8698 34.6402 57.1955 35.3182C57.5251 35.9962 57.6899 36.7822 57.6899 37.6761C57.6899 38.5625 57.527 39.3447 57.2012 40.0227C56.8755 40.697 56.4228 41.2254 55.8433 41.608C55.2675 41.9905 54.6027 42.1818 53.849 42.1818ZM53.849 41.2557C54.455 41.2557 54.9683 41.0928 55.3887 40.767C55.8092 40.4413 56.1274 40.0076 56.3433 39.4659C56.563 38.9242 56.6728 38.3277 56.6728 37.6761C56.6728 37.0246 56.563 36.4261 56.3433 35.8807C56.1274 35.3352 55.8092 34.8977 55.3887 34.5682C54.9683 34.2386 54.455 34.0739 53.849 34.0739C53.2467 34.0739 52.7334 34.2386 52.3092 34.5682C51.8887 34.8977 51.5687 35.3352 51.349 35.8807C51.133 36.4261 51.0251 37.0246 51.0251 37.6761C51.0251 38.3277 51.133 38.9242 51.349 39.4659C51.5687 40.0076 51.8887 40.4413 52.3092 40.767C52.7296 41.0928 53.2429 41.2557 53.849 41.2557ZM60.8254 36.5455V42H59.814V33.2727H60.797V34.642H60.8879C61.0924 34.1951 61.4106 33.8371 61.8424 33.5682C62.2781 33.2955 62.8159 33.1591 63.4561 33.1591C64.0432 33.1591 64.5584 33.2822 65.0015 33.5284C65.4485 33.7708 65.7951 34.1288 66.0413 34.6023C66.2913 35.0758 66.4163 35.6572 66.4163 36.3466V42H65.4049V36.4091C65.4049 35.6932 65.2042 35.1269 64.8027 34.7102C64.4049 34.2936 63.8709 34.0852 63.2004 34.0852C62.7421 34.0852 62.3349 34.1837 61.9788 34.3807C61.6227 34.5777 61.3406 34.8617 61.1322 35.233C60.9277 35.6004 60.8254 36.0379 60.8254 36.5455ZM72.4212 33.2727V34.1534H68.2564V33.2727H72.4212ZM69.5575 31.1818H70.5746V39.7216C70.5746 40.0852 70.6371 40.3712 70.7621 40.5795C70.8871 40.7841 71.05 40.9299 71.2507 41.017C71.4515 41.1004 71.6655 41.142 71.8928 41.142C72.0253 41.142 72.139 41.1345 72.2337 41.1193C72.3284 41.1004 72.4117 41.0814 72.4837 41.0625L72.6996 41.9773C72.6011 42.0152 72.4799 42.0492 72.3359 42.0795C72.192 42.1136 72.014 42.1307 71.8018 42.1307C71.4306 42.1307 71.0727 42.0492 70.728 41.8864C70.3871 41.7235 70.1068 41.4811 69.8871 41.1591C69.6674 40.8371 69.5575 40.4375 69.5575 39.9602V31.1818ZM78.0567 42.1818C77.2423 42.1818 76.5378 41.9924 75.9431 41.6136C75.3484 41.2311 74.8881 40.7027 74.5624 40.0284C74.2404 39.3504 74.0794 38.5701 74.0794 37.6875C74.0794 36.8087 74.2404 36.0284 74.5624 35.3466C74.8881 34.661 75.337 34.125 75.909 33.7386C76.4847 33.3485 77.1495 33.1534 77.9033 33.1534C78.3768 33.1534 78.8332 33.2405 79.2726 33.4148C79.712 33.5852 80.1059 33.8485 80.4544 34.2045C80.8067 34.5568 81.0851 35.0019 81.2897 35.5398C81.4942 36.0739 81.5965 36.7064 81.5965 37.4375V37.9375H74.7783V37.0455H80.5624C80.5624 36.4848 80.4487 35.9811 80.2215 35.5341C79.998 35.0833 79.6855 34.7273 79.284 34.4659C78.8862 34.2045 78.426 34.0739 77.9033 34.0739C77.3503 34.0739 76.8635 34.2216 76.4431 34.517C76.0226 34.8125 75.6931 35.2027 75.4544 35.6875C75.2196 36.1723 75.1003 36.7027 75.0965 37.2784V37.8125C75.0965 38.5057 75.2158 39.1117 75.4544 39.6307C75.6968 40.1458 76.0397 40.5455 76.4828 40.8295C76.926 41.1136 77.4506 41.2557 78.0567 41.2557C78.4696 41.2557 78.8313 41.1913 79.1419 41.0625C79.4563 40.9337 79.7196 40.7614 79.9317 40.5455C80.1476 40.3258 80.3105 40.0852 80.4203 39.8239L81.3806 40.1364C81.248 40.5038 81.0302 40.8428 80.7272 41.1534C80.4279 41.464 80.0529 41.714 79.6022 41.9034C79.1552 42.089 78.64 42.1818 78.0567 42.1818ZM84.7405 36.5455V42H83.7292V33.2727H84.7121V34.642H84.803C85.0076 34.1951 85.3258 33.8371 85.7576 33.5682C86.1932 33.2955 86.7311 33.1591 87.3712 33.1591C87.9583 33.1591 88.4735 33.2822 88.9167 33.5284C89.3636 33.7708 89.7102 34.1288 89.9564 34.6023C90.2064 35.0758 90.3314 35.6572 90.3314 36.3466V42H89.3201V36.4091C89.3201 35.6932 89.1193 35.1269 88.7178 34.7102C88.3201 34.2936 87.786 34.0852 87.1155 34.0852C86.6572 34.0852 86.25 34.1837 85.8939 34.3807C85.5379 34.5777 85.2557 34.8617 85.0473 35.233C84.8428 35.6004 84.7405 36.0379 84.7405 36.5455ZM96.3363 33.2727V34.1534H92.1715V33.2727H96.3363ZM93.4727 31.1818H94.4897V39.7216C94.4897 40.0852 94.5522 40.3712 94.6772 40.5795C94.8022 40.7841 94.9651 40.9299 95.1658 41.017C95.3666 41.1004 95.5806 41.142 95.8079 41.142C95.9405 41.142 96.0541 41.1345 96.1488 41.1193C96.2435 41.1004 96.3268 41.0814 96.3988 41.0625L96.6147 41.9773C96.5162 42.0152 96.395 42.0492 96.2511 42.0795C96.1071 42.1136 95.9291 42.1307 95.717 42.1307C95.3458 42.1307 94.9878 42.0492 94.6431 41.8864C94.3022 41.7235 94.0219 41.4811 93.8022 41.1591C93.5825 40.8371 93.4727 40.4375 93.4727 39.9602V31.1818ZM103.953 36.5455V42H102.941V30.3636H103.953V34.642H104.043C104.248 34.1913 104.564 33.8314 104.992 33.5625C105.424 33.2936 105.97 33.1591 106.629 33.1591C107.22 33.1591 107.739 33.2803 108.185 33.5227C108.632 33.7652 108.981 34.1231 109.231 34.5966C109.481 35.0701 109.606 35.6534 109.606 36.3466V42H108.589V36.4091C108.589 35.6894 108.388 35.1231 107.987 34.7102C107.589 34.2936 107.051 34.0852 106.373 34.0852C105.907 34.0852 105.492 34.1837 105.129 34.3807C104.765 34.5777 104.477 34.8617 104.265 35.233C104.057 35.6004 103.953 36.0379 103.953 36.5455ZM115.702 42.1818C114.887 42.1818 114.183 41.9924 113.588 41.6136C112.993 41.2311 112.533 40.7027 112.207 40.0284C111.885 39.3504 111.724 38.5701 111.724 37.6875C111.724 36.8087 111.885 36.0284 112.207 35.3466C112.533 34.661 112.982 34.125 113.554 33.7386C114.13 33.3485 114.794 33.1534 115.548 33.1534C116.022 33.1534 116.478 33.2405 116.918 33.4148C117.357 33.5852 117.751 33.8485 118.099 34.2045C118.452 34.5568 118.73 35.0019 118.935 35.5398C119.139 36.0739 119.241 36.7064 119.241 37.4375V37.9375H112.423V37.0455H118.207C118.207 36.4848 118.094 35.9811 117.866 35.5341C117.643 35.0833 117.33 34.7273 116.929 34.4659C116.531 34.2045 116.071 34.0739 115.548 34.0739C114.995 34.0739 114.509 34.2216 114.088 34.517C113.668 34.8125 113.338 35.2027 113.099 35.6875C112.865 36.1723 112.745 36.7027 112.741 37.2784V37.8125C112.741 38.5057 112.861 39.1117 113.099 39.6307C113.342 40.1458 113.685 40.5455 114.128 40.8295C114.571 41.1136 115.096 41.2557 115.702 41.2557C116.115 41.2557 116.476 41.1913 116.787 41.0625C117.101 40.9337 117.365 40.7614 117.577 40.5455C117.793 40.3258 117.955 40.0852 118.065 39.8239L119.026 40.1364C118.893 40.5038 118.675 40.8428 118.372 41.1534C118.073 41.464 117.698 41.714 117.247 41.9034C116.8 42.089 116.285 42.1818 115.702 42.1818ZM121.374 42V33.2727H122.357V34.6136H122.431C122.605 34.1742 122.908 33.8201 123.34 33.5511C123.776 33.2784 124.268 33.142 124.817 33.142C124.901 33.142 124.993 33.1439 125.096 33.1477C125.198 33.1515 125.283 33.1553 125.351 33.1591V34.1875C125.306 34.1799 125.226 34.1686 125.113 34.1534C124.999 34.1383 124.876 34.1307 124.743 34.1307C124.289 34.1307 123.884 34.2273 123.528 34.4205C123.175 34.6098 122.897 34.8731 122.692 35.2102C122.488 35.5473 122.386 35.9318 122.386 36.3636V42H121.374ZM130.244 42.1818C129.43 42.1818 128.725 41.9924 128.13 41.6136C127.536 41.2311 127.076 40.7027 126.75 40.0284C126.428 39.3504 126.267 38.5701 126.267 37.6875C126.267 36.8087 126.428 36.0284 126.75 35.3466C127.076 34.661 127.524 34.125 128.096 33.7386C128.672 33.3485 129.337 33.1534 130.091 33.1534C130.564 33.1534 131.021 33.2405 131.46 33.4148C131.899 33.5852 132.293 33.8485 132.642 34.2045C132.994 34.5568 133.272 35.0019 133.477 35.5398C133.682 36.0739 133.784 36.7064 133.784 37.4375V37.9375H126.966V37.0455H132.75C132.75 36.4848 132.636 35.9811 132.409 35.5341C132.185 35.0833 131.873 34.7273 131.471 34.4659C131.074 34.2045 130.613 34.0739 130.091 34.0739C129.538 34.0739 129.051 34.2216 128.63 34.517C128.21 34.8125 127.88 35.2027 127.642 35.6875C127.407 36.1723 127.288 36.7027 127.284 37.2784V37.8125C127.284 38.5057 127.403 39.1117 127.642 39.6307C127.884 40.1458 128.227 40.5455 128.67 40.8295C129.113 41.1136 129.638 41.2557 130.244 41.2557C130.657 41.2557 131.019 41.1913 131.329 41.0625C131.644 40.9337 131.907 40.7614 132.119 40.5455C132.335 40.3258 132.498 40.0852 132.608 39.8239L133.568 40.1364C133.435 40.5038 133.218 40.8428 132.915 41.1534C132.615 41.464 132.24 41.714 131.79 41.9034C131.343 42.089 130.827 42.1818 130.244 42.1818Z" fill="#249DF5"/>
<path d="M74 10V12.6667C74 13.0203 73.8595 13.3594 73.6095 13.6095C73.3594 13.8595 73.0203 14 72.6667 14H63.3333C62.9797 14 62.6406 13.8595 62.3905 13.6095C62.1405 13.3594 62 13.0203 62 12.6667V10" stroke="#249DF5" stroke-width="1.33" stroke-linecap="round" stroke-linejoin="round"/>
<path d="M64.667 6.66667L68.0003 10L71.3337 6.66667" stroke="#249DF5" stroke-width="1.33" stroke-linecap="round" stroke-linejoin="round"/>
<path d="M68 10V2" stroke="#249DF5" stroke-width="1.33" stroke-linecap="round" stroke-linejoin="round"/>
</svg>
