<svg width="99" height="37" viewBox="0 0 99 37" fill="none" xmlns="http://www.w3.org/2000/svg">
<rect x="11.015" y="2.71483" width="26.3117" height="26.3117" rx="8.5" transform="rotate(15 11.015 2.71483)" stroke="#3AC99E" stroke-width="2"/>
<rect width="25.3315" height="25.3315" rx="6" fill="#32E3AE"/>
<path d="M60.9583 20.1501H56.1832C56.1494 19.755 56.0591 19.3966 55.9123 19.0749C55.7712 18.7531 55.5736 18.4766 55.3197 18.2452C55.0713 18.0081 54.7693 17.8275 54.4137 17.7033C54.0582 17.5735 53.6546 17.5086 53.203 17.5086C52.4128 17.5086 51.744 17.7005 51.1965 18.0843C50.6547 18.4681 50.2426 19.0184 49.9604 19.7352C49.6838 20.4521 49.5456 21.3128 49.5456 22.3175C49.5456 23.3786 49.6867 24.2676 49.9689 24.9844C50.2567 25.6956 50.6716 26.2318 51.2134 26.5931C51.7553 26.9486 52.4072 27.1264 53.1692 27.1264C53.6038 27.1264 53.9932 27.0728 54.3375 26.9656C54.6818 26.8527 54.981 26.6918 55.235 26.483C55.489 26.2741 55.695 26.023 55.853 25.7295C56.0167 25.4303 56.1268 25.0945 56.1832 24.722L60.9583 24.7558C60.9018 25.4896 60.6958 26.2375 60.3402 26.9994C59.9847 27.7558 59.4795 28.4557 58.8248 29.0991C58.1757 29.7369 57.3714 30.2505 56.4118 30.64C55.4523 31.0295 54.3375 31.2242 53.0676 31.2242C51.4759 31.2242 50.0479 30.8827 48.7836 30.1997C47.5249 29.5168 46.5287 28.5121 45.7949 27.1857C45.0668 25.8593 44.7028 24.2366 44.7028 22.3175C44.7028 20.3872 45.0753 18.7616 45.8203 17.4408C46.5654 16.1144 47.5701 15.1126 48.8344 14.4353C50.0987 13.7523 51.5098 13.4108 53.0676 13.4108C54.1626 13.4108 55.1701 13.5604 56.0901 13.8595C57.0101 14.1587 57.8172 14.5961 58.5115 15.1718C59.2057 15.7419 59.7645 16.4446 60.1878 17.28C60.6112 18.1153 60.868 19.072 60.9583 20.1501Z" fill="#1C1C1C"/>
<path d="M63.0939 30.9871V13.6479H70.5783C71.8652 13.6479 72.9912 13.8821 73.9564 14.3506C74.9215 14.8191 75.6722 15.4936 76.2084 16.3741C76.7446 17.2546 77.0127 18.3101 77.0127 19.5405C77.0127 20.7823 76.7362 21.8293 76.183 22.6816C75.6355 23.5338 74.8651 24.1773 73.8717 24.6119C72.884 25.0465 71.7297 25.2638 70.4089 25.2638H65.9387V21.6063H69.4607C70.0138 21.6063 70.4851 21.5386 70.8746 21.4031C71.2697 21.262 71.5717 21.0391 71.7805 20.7343C71.995 20.4295 72.1022 20.0316 72.1022 19.5405C72.1022 19.0438 71.995 18.6403 71.7805 18.3298C71.5717 18.0137 71.2697 17.7823 70.8746 17.6356C70.4851 17.4832 70.0138 17.407 69.4607 17.407H67.8013V30.9871H63.0939ZM73.2537 23.0287L77.5885 30.9871H72.4747L68.2415 23.0287H73.2537Z" fill="#1C1C1C"/>
<path d="M79.0193 13.6479H84.8781L88.9081 23.4689H89.1113L93.1413 13.6479H99V30.9871H94.3943V20.9629H94.2589L90.3982 30.8517H87.6212L83.7605 20.8951H83.625V30.9871H79.0193V13.6479Z" fill="#1C1C1C"/>
<path d="M47.1586 9.076H44.7028V1.49008H47.2363C47.9796 1.49008 48.618 1.64195 49.1513 1.94568C49.6847 2.24694 50.0934 2.68032 50.3774 3.24581C50.6638 3.80882 50.8071 4.4842 50.8071 5.27193C50.8071 6.06213 50.6626 6.7412 50.3737 7.30916C50.0872 7.87712 49.6724 8.3142 49.1291 8.6204C48.5858 8.92413 47.929 9.076 47.1586 9.076ZM45.8473 8.0759H47.0956C47.6734 8.0759 48.1537 7.96725 48.5365 7.74994C48.9192 7.53017 49.2057 7.21285 49.3958 6.798C49.5859 6.38068 49.681 5.87198 49.681 5.27193C49.681 4.67681 49.5859 4.17182 49.3958 3.75697C49.2081 3.34211 48.9279 3.02727 48.555 2.81243C48.1821 2.5976 47.7191 2.49018 47.166 2.49018H45.8473V8.0759Z" fill="#1C1C1C"/>
<path d="M54.5935 9.19082C54.033 9.19082 53.5502 9.07106 53.1452 8.83153C52.7427 8.58953 52.4316 8.24999 52.2118 7.81291C51.9945 7.37336 51.8859 6.8585 51.8859 6.26832C51.8859 5.68555 51.9945 5.17192 52.2118 4.72743C52.4316 4.28294 52.7378 3.936 53.1304 3.68659C53.5255 3.43718 53.9873 3.31248 54.5157 3.31248C54.8368 3.31248 55.1479 3.36557 55.4492 3.47175C55.7504 3.57794 56.0208 3.74462 56.2604 3.9718C56.4999 4.19898 56.6888 4.49407 56.8271 4.85707C56.9654 5.2176 57.0345 5.65591 57.0345 6.17201V6.56464H52.5118V5.73493H55.9492C55.9492 5.44355 55.8899 5.1855 55.7714 4.96079C55.6529 4.7336 55.4862 4.55457 55.2714 4.4237C55.059 4.29282 54.8096 4.22738 54.5231 4.22738C54.212 4.22738 53.9404 4.30393 53.7083 4.45703C53.4786 4.60767 53.3008 4.80522 53.1749 5.04968C53.0514 5.29168 52.9897 5.55467 52.9897 5.83865V6.48686C52.9897 6.86714 53.0563 7.19063 53.1897 7.45732C53.3255 7.72402 53.5144 7.92774 53.7564 8.06849C53.9984 8.20678 54.2811 8.27592 54.6046 8.27592C54.8145 8.27592 55.0059 8.24629 55.1788 8.18702C55.3516 8.12529 55.501 8.03392 55.627 7.91292C55.7529 7.79192 55.8492 7.64253 55.9159 7.46473L56.9641 7.65364C56.8802 7.96231 56.7295 8.23271 56.5122 8.46483C56.2974 8.69448 56.027 8.87351 55.701 9.00192C55.3776 9.12785 55.0084 9.19082 54.5935 9.19082Z" fill="#1C1C1C"/>
<path d="M58.2633 9.076V3.38656H59.3264V4.31258H59.3968C59.5153 3.99897 59.7091 3.7545 59.9783 3.57917C60.2475 3.40138 60.5697 3.31248 60.9451 3.31248C61.3253 3.31248 61.6439 3.40138 61.9007 3.57917C62.16 3.75697 62.3514 4.00143 62.4748 4.31258H62.5341C62.6699 4.00884 62.886 3.76684 63.1823 3.58658C63.4786 3.40385 63.8318 3.31248 64.2417 3.31248C64.7578 3.31248 65.1788 3.47422 65.5048 3.79771C65.8332 4.1212 65.9974 4.6089 65.9974 5.26081V9.076H64.8899V5.36453C64.8899 4.97931 64.7849 4.70027 64.575 4.52741C64.3651 4.35456 64.1145 4.26813 63.8231 4.26813C63.4626 4.26813 63.1823 4.37925 62.9823 4.60149C62.7823 4.82127 62.6823 5.10401 62.6823 5.44972V9.076H61.5785V5.29415C61.5785 4.98548 61.4822 4.73731 61.2895 4.54964C61.0969 4.36196 60.8463 4.26813 60.5376 4.26813C60.3277 4.26813 60.1339 4.32369 59.9561 4.43481C59.7808 4.54346 59.6388 4.69533 59.5301 4.89041C59.4239 5.08549 59.3708 5.31144 59.3708 5.56825V9.076H58.2633Z" fill="#1C1C1C"/>
<path d="M69.8783 9.19082C69.3449 9.19082 68.8795 9.06859 68.4819 8.82412C68.0843 8.57965 67.7757 8.23764 67.5559 7.7981C67.3361 7.35855 67.2262 6.84492 67.2262 6.25721C67.2262 5.66703 67.3361 5.15093 67.5559 4.70891C67.7757 4.26689 68.0843 3.92365 68.4819 3.67918C68.8795 3.43471 69.3449 3.31248 69.8783 3.31248C70.4117 3.31248 70.8772 3.43471 71.2748 3.67918C71.6723 3.92365 71.981 4.26689 72.2008 4.70891C72.4205 5.15093 72.5304 5.66703 72.5304 6.25721C72.5304 6.84492 72.4205 7.35855 72.2008 7.7981C71.981 8.23764 71.6723 8.57965 71.2748 8.82412C70.8772 9.06859 70.4117 9.19082 69.8783 9.19082ZM69.882 8.2611C70.2277 8.2611 70.5142 8.16974 70.7414 7.987C70.9686 7.80427 71.1365 7.56104 71.2451 7.2573C71.3563 6.95357 71.4118 6.61897 71.4118 6.2535C71.4118 5.89051 71.3563 5.55714 71.2451 5.25341C71.1365 4.9472 70.9686 4.7015 70.7414 4.5163C70.5142 4.3311 70.2277 4.23849 69.882 4.23849C69.5339 4.23849 69.2449 4.3311 69.0153 4.5163C68.7881 4.7015 68.6189 4.9472 68.5078 5.25341C68.3992 5.55714 68.3448 5.89051 68.3448 6.2535C68.3448 6.61897 68.3992 6.95357 68.5078 7.2573C68.6189 7.56104 68.7881 7.80427 69.0153 7.987C69.2449 8.16974 69.5339 8.2611 69.882 8.2611Z" fill="#1C1C1C"/>
</svg>
