<?xml version="1.0" encoding="UTF-8"?>
<!DOCTYPE svg PUBLIC "-//W3C//DTD SVG 1.1//EN" "http://www.w3.org/Graphics/SVG/1.1/DTD/svg11.dtd">
<svg xmlns="http://www.w3.org/2000/svg" version="1.1" width="37px" height="37px" style="shape-rendering:geometricPrecision; text-rendering:geometricPrecision; image-rendering:optimizeQuality; fill-rule:evenodd; clip-rule:evenodd" xmlns:xlink="http://www.w3.org/1999/xlink">
<g><path style="opacity:1" fill="#37e3af" d="M 3.5,-0.5 C 9.83333,-0.5 16.1667,-0.5 22.5,-0.5C 23.6005,0.60486 24.2671,1.93819 24.5,3.5C 24.5,9.5 24.5,15.5 24.5,21.5C 23.8333,22.8333 22.8333,23.8333 21.5,24.5C 16.8333,24.5 12.1667,24.5 7.5,24.5C 6.16667,24.5 4.83333,24.5 3.5,24.5C 1.93819,24.2671 0.60486,23.6005 -0.5,22.5C -0.5,15.5 -0.5,8.5 -0.5,1.5C -0.166667,1.5 0.166667,1.5 0.5,1.5C 2.02694,1.57298 3.02694,0.906316 3.5,-0.5 Z"/></g>
<g><path style="opacity:0.816" fill="#a3f1d7" d="M 1.5,-0.5 C 2.16667,-0.5 2.83333,-0.5 3.5,-0.5C 3.02694,0.906316 2.02694,1.57298 0.5,1.5C 0.833333,0.833333 1.16667,0.166667 1.5,-0.5 Z"/></g>
<g><path style="opacity:0.999" fill="#84dcbe" d="M 24.5,3.5 C 32.5309,5.35976 36.0309,10.3598 35,18.5C 34.2802,22.7158 32.9469,26.7158 31,30.5C 30.0975,31.7014 28.9308,32.5348 27.5,33C 17.6872,34.7295 9.68721,31.8962 3.5,24.5C 4.83333,24.5 6.16667,24.5 7.5,24.5C 7.32842,25.4916 7.66175,26.1583 8.5,26.5C 25.9687,35.5494 33.4687,30.216 31,10.5C 29.3333,9.5 27.6667,8.5 26,7.5C 25.8255,12.3514 25.3255,17.0181 24.5,21.5C 24.5,15.5 24.5,9.5 24.5,3.5 Z"/></g>
<g><path style="opacity:0.333" fill="#bef5e4" d="M 7.5,24.5 C 12.1667,24.5 16.8333,24.5 21.5,24.5C 17.1667,25.1667 12.8333,25.8333 8.5,26.5C 7.66175,26.1583 7.32842,25.4916 7.5,24.5 Z"/></g>
</svg>
